<svg width="18" height="14" viewBox="0 0 18 14" fill="none" xmlns="http://www.w3.org/2000/svg">
<path d="M15.6666 0.333374H2.33329C1.41663 0.333374 0.674959 1.08337 0.674959 2.00004L0.666626 12C0.666626 12.9167 1.41663 13.6667 2.33329 13.6667H15.6666C16.5833 13.6667 17.3333 12.9167 17.3333 12V2.00004C17.3333 1.08337 16.5833 0.333374 15.6666 0.333374ZM15.3333 3.87504L9.44163 7.55837C9.17496 7.72504 8.82496 7.72504 8.55829 7.55837L2.66663 3.87504C2.58307 3.82813 2.50989 3.76476 2.45153 3.68875C2.39317 3.61275 2.35084 3.52569 2.32711 3.43285C2.30337 3.34001 2.29871 3.24332 2.31342 3.14863C2.32813 3.05394 2.36191 2.96322 2.41269 2.88196C2.46348 2.8007 2.53023 2.73059 2.6089 2.67587C2.68757 2.62115 2.77652 2.58297 2.87037 2.56362C2.96423 2.54428 3.06103 2.54418 3.15492 2.56333C3.24881 2.58248 3.33785 2.62048 3.41663 2.67504L8.99996 6.16671L14.5833 2.67504C14.6621 2.62048 14.7511 2.58248 14.845 2.56333C14.9389 2.54418 15.0357 2.54428 15.1295 2.56362C15.2234 2.58297 15.3124 2.62115 15.391 2.67587C15.4697 2.73059 15.5364 2.8007 15.5872 2.88196C15.638 2.96322 15.6718 3.05394 15.6865 3.14863C15.7012 3.24332 15.6966 3.34001 15.6728 3.43285C15.6491 3.52569 15.6067 3.61275 15.5484 3.68875C15.49 3.76476 15.4169 3.82813 15.3333 3.87504Z" fill="#BDBDBD"/>
</svg>
